<svg xmlns="http://www.w3.org/2000/svg" viewBox="0 0 438.07 160"><defs><style>.cls-1{fill:#222;}</style></defs><g id="레이어_2" data-name="레이어 2"><g id="레이어_1-2" data-name="레이어 1"><path class="cls-1" d="M0,1.19H22.11C36,1.19,47.44,6.1,47.44,21.69c0,15-11.61,21.6-24.91,21.6H15.16V64.21H0ZM21.77,31.34c7.37,0,10.93-3.47,10.93-9.65,0-6.36-4.07-8.56-11.35-8.56H15.16V31.34Z"/><path class="cls-1" d="M57.86,34.56V1.19H72.94v35c0,11.95,3.56,16.18,10.51,16.18s10.67-4.23,10.67-16.18v-35h14.57V34.56c0,21.27-8.47,30.84-25.24,30.84S57.86,55.83,57.86,34.56Z"/><path class="cls-1" d="M122.84,1.19H145c13.89,0,25.33,4.91,25.33,20.5,0,15-11.61,21.6-24.91,21.6H138V64.21H122.84Zm21.77,30.15c7.37,0,10.93-3.47,10.93-9.65,0-6.36-4.07-8.56-11.35-8.56H138V31.34Z"/><path class="cls-1" d="M176,56.33l8.56-10.42c4.49,3.82,10.33,6.44,15.33,6.44,5.59,0,8.22-2.11,8.22-5.5,0-3.65-3.47-4.83-8.9-7.12l-8-3.39c-6.61-2.62-12.8-8.13-12.8-17.28C178.41,8.47,187.9,0,201.29,0a29.37,29.37,0,0,1,20.5,8.3l-7.54,9.49c-4.15-3.13-8.05-4.83-13-4.83-4.66,0-7.54,1.86-7.54,5.25s4,4.83,9.57,7l7.88,3.14c7.79,3.13,12.45,8.39,12.45,17.28,0,10.51-8.81,19.74-24.06,19.74A35.26,35.26,0,0,1,176,56.33Z"/><path class="cls-1" d="M231.28,33c0-21,14.06-33,30.07-33A26.85,26.85,0,0,1,280.5,8.22l-8,9.65C269.4,15,266.09,13,261.6,13c-8.13,0-14.82,7.29-14.82,19.57,0,12.54,5.76,19.82,14.65,19.82,5,0,9.07-2.54,12-5.76l8,9.49a26.25,26.25,0,0,1-20.59,9.32C244.83,65.4,231.28,54.39,231.28,33Z"/><path class="cls-1" d="M320.4,49.73H301.76l-3.64,14.48H282.7l19.57-63H320.4l19.57,63H324ZM317.52,38l-1.36-5.34c-1.69-6.27-3.3-13.81-5-20.25h-.33c-1.53,6.61-3.22,14-4.83,20.25L304.64,38Z"/><path class="cls-1" d="M346.57,1.19h15.17V51.51h24.48v12.7H346.57Z"/><path class="cls-1" d="M397.15,1.19h40V13.72H412.31V25.41h21.1V38.12h-21.1V51.51h25.76v12.7H397.15Z"/><path class="cls-1" d="M1.19,96.72h17.7c14,0,23.3,4.66,23.3,18.21,0,13.13-9.32,19.23-22.87,19.23H9.06v24.65H1.19ZM18.3,127.81c10.93,0,16.09-4,16.09-12.88S28.89,103.07,18,103.07H9.06v24.74Z"/><path class="cls-1" d="M47.1,146.87c0-10,8.73-15,28.3-17.2,0-5.93-2-11.6-9.49-11.6-5.34,0-10.17,2.45-13.81,4.91l-3.05-5.34c4.24-2.71,10.76-6,18.13-6,11.18,0,15.93,7.54,15.93,18.89v28.29H76.75l-.67-5.5h-.26c-4.4,3.64-9.57,6.61-15.25,6.61C52.86,159.92,47.1,155.17,47.1,146.87Zm28.3.76V134.76c-15.5,1.86-20.76,5.67-20.76,11.6,0,5.25,3.56,7.37,8.14,7.37S70.91,151.61,75.4,147.63Z"/><path class="cls-1" d="M97.76,112.81h6.36l.68,8.39h.25c3.22-5.84,7.88-9.57,13-9.57a9.83,9.83,0,0,1,4.91,1l-1.44,6.78a11,11,0,0,0-4.49-.76c-3.81,0-8.56,2.71-11.61,10.59v29.56H97.76Z"/><path class="cls-1" d="M132,144.58v-25.5h-6.86v-5.84l7.2-.43.93-12.87h6.44v12.87h12.45v6.27H139.7v25.67c0,5.68,1.78,8.9,7.11,8.9a16.46,16.46,0,0,0,5.26-1.19l1.52,5.76a28.93,28.93,0,0,1-8.47,1.7C135.29,159.92,132,153.82,132,144.58Z"/><path class="cls-1" d="M162.57,112.81h6.36l.67,6.61h.26c4.4-4.32,9.15-7.79,15.42-7.79,9.65,0,14.06,6.27,14.06,18v29.14h-7.71V130.69c0-8.64-2.63-12.28-8.73-12.28-4.74,0-8,2.37-12.62,7v33.37h-7.71Z"/><path class="cls-1" d="M210.86,135.86c0-14.91,10.08-24.23,20.76-24.23,11.69,0,18.29,8.47,18.29,21.6a30.22,30.22,0,0,1-.34,4.41h-31c.51,9.82,6.52,16.09,15.25,16.09a19.81,19.81,0,0,0,11.52-3.64l2.79,5.08a27.3,27.3,0,0,1-15.24,4.75C220.69,159.92,210.86,151,210.86,135.86Zm32.28-3.73c0-9.32-4.24-14.32-11.44-14.32-6.52,0-12.28,5.26-13.22,14.32Z"/><path class="cls-1" d="M261.27,112.81h6.35l.68,8.39h.25c3.22-5.84,7.88-9.57,13.05-9.57a9.83,9.83,0,0,1,4.91,1l-1.44,6.78a10.93,10.93,0,0,0-4.49-.76c-3.81,0-8.55,2.71-11.6,10.59v29.56h-7.71Z"/><path class="cls-1" d="M288.63,153.56l3.81-5.08c4,3.22,8.13,5.42,13.64,5.42,6.1,0,9.07-3.22,9.07-7.2,0-4.66-5.43-6.78-10.51-8.73-6.44-2.37-13.72-5.5-13.72-13.3,0-7.28,5.84-13,15.84-13a23.8,23.8,0,0,1,14.31,5.17l-3.72,5c-3.22-2.37-6.44-4.06-10.59-4.06-5.76,0-8.39,3-8.39,6.61,0,4.4,5,6,10.17,8,6.69,2.54,14.06,5.25,14.06,14,0,7.45-5.93,13.64-16.77,13.64A27.75,27.75,0,0,1,288.63,153.56Z"/><path class="cls-1" d="M331.58,150.6c0-5.17,3.73-9.32,9-9.32a9,9,0,0,1,9,9.32c0,5.25-3.81,9.4-9,9.4S331.58,155.85,331.58,150.6Z"/></g></g></svg>