<svg xmlns="http://www.w3.org/2000/svg" viewBox="0 0 273.79 100"><defs><style>.cls-1{fill:#fff;}</style></defs><g id="레이어_2" data-name="레이어 2"><g id="레이어_1-2" data-name="레이어 1"><path class="cls-1" d="M0,.74H13.82c8.68,0,15.83,3.07,15.83,12.81,0,9.38-7.25,13.51-15.57,13.51H9.48V40.13H0ZM13.61,19.59c4.6,0,6.83-2.17,6.83-6s-2.54-5.34-7.1-5.34H9.48V19.59Z"/><path class="cls-1" d="M36.16,21.6V.74h9.43V22.61c0,7.46,2.22,10.11,6.56,10.11s6.67-2.65,6.67-10.11V.74h9.11V21.6c0,13.29-5.29,19.27-15.78,19.27S36.16,34.89,36.16,21.6Z"/><path class="cls-1" d="M76.77.74H90.59c8.69,0,15.83,3.07,15.83,12.81,0,9.38-7.25,13.51-15.56,13.51H86.25V40.13H76.77ZM90.38,19.59c4.61,0,6.83-2.17,6.83-6s-2.54-5.34-7.09-5.34H86.25V19.59Z"/><path class="cls-1" d="M110,35.21l5.34-6.51c2.81,2.38,6.46,4,9.59,4,3.49,0,5.13-1.32,5.13-3.44,0-2.28-2.17-3-5.56-4.45l-5-2.12c-4.13-1.64-8-5.08-8-10.8C111.51,5.29,117.44,0,125.8,0a18.34,18.34,0,0,1,12.82,5.19l-4.72,5.93a12.78,12.78,0,0,0-8.1-3c-2.91,0-4.71,1.17-4.71,3.28s2.49,3,6,4.4l4.93,2c4.87,2,7.78,5.24,7.78,10.8,0,6.56-5.5,12.33-15,12.33A22,22,0,0,1,110,35.21Z"/><path class="cls-1" d="M144.55,20.65C144.55,7.52,153.34,0,163.34,0a16.76,16.76,0,0,1,12,5.14l-5,6c-2-1.8-4-3.07-6.83-3.07-5.08,0-9.26,4.55-9.26,12.23,0,7.84,3.6,12.39,9.16,12.39a10.27,10.27,0,0,0,7.52-3.6l5,5.93A16.36,16.36,0,0,1,163,40.87C153,40.87,144.55,34,144.55,20.65Z"/><path class="cls-1" d="M200.25,31.08H188.6l-2.28,9.05h-9.63L188.92.74h11.33l12.23,39.39h-9.95Zm-1.8-7.31-.85-3.33c-1.06-3.92-2.06-8.63-3.12-12.66h-.21c-1,4.13-2,8.74-3,12.66l-.85,3.33Z"/><path class="cls-1" d="M216.61.74h9.48V32.19h15.3v7.94H216.61Z"/><path class="cls-1" d="M248.22.74h25V8.58H257.7v7.3h13.18v7.95H257.7v8.36h16.09v7.94H248.22Z"/><path class="cls-1" d="M.74,60.45H11.81c8.73,0,14.56,2.91,14.56,11.38,0,8.21-5.83,12-14.3,12H5.67V99.26H.74Zm10.7,19.43c6.83,0,10.06-2.49,10.06-8s-3.45-7.41-10.28-7.41H5.67V79.88Z"/><path class="cls-1" d="M29.44,91.79c0-6.24,5.45-9.37,17.68-10.74,0-3.71-1.21-7.26-5.93-7.26a15.91,15.91,0,0,0-8.63,3.07l-1.9-3.33A21.54,21.54,0,0,1,42,69.77c7,0,9.95,4.71,9.95,11.8V99.26H48l-.42-3.44h-.16c-2.75,2.27-6,4.13-9.53,4.13C33,100,29.44,97,29.44,91.79Zm17.68.48v-8c-9.69,1.17-13,3.55-13,7.26,0,3.28,2.23,4.6,5.08,4.6S44.32,94.76,47.12,92.27Z"/><path class="cls-1" d="M61.1,70.51h4l.43,5.24h.16c2-3.65,4.92-6,8.15-6a6.2,6.2,0,0,1,3.07.63L76,74.64a6.81,6.81,0,0,0-2.81-.48c-2.38,0-5.34,1.7-7.25,6.62V99.26H61.1Z"/><path class="cls-1" d="M82.49,90.36V74.43H78.2V70.77l4.5-.26.59-8.05h4v8.05h7.78v3.92H87.31v16C87.31,94,88.42,96,91.76,96A10.2,10.2,0,0,0,95,95.29l.95,3.6A18,18,0,0,1,90.7,100C84.56,100,82.49,96.13,82.49,90.36Z"/><path class="cls-1" d="M101.61,70.51h4l.42,4.13h.16c2.75-2.7,5.72-4.87,9.64-4.87,6,0,8.79,3.92,8.79,11.28V99.26h-4.82V81.68c0-5.4-1.64-7.68-5.46-7.68-3,0-5,1.49-7.88,4.4V99.26h-4.82Z"/><path class="cls-1" d="M131.79,84.91c0-9.32,6.3-15.14,13-15.14,7.31,0,11.44,5.29,11.44,13.5A18.08,18.08,0,0,1,156,86H136.61c.31,6.14,4.07,10.06,9.53,10.06a12.4,12.4,0,0,0,7.2-2.27L155.08,97a17.11,17.11,0,0,1-9.53,3C137.93,100,131.79,94.39,131.79,84.91ZM152,82.58c0-5.82-2.65-9-7.15-9-4.07,0-7.67,3.29-8.26,9Z"/><path class="cls-1" d="M163.29,70.51h4l.43,5.24h.15c2-3.65,4.93-6,8.16-6a6.2,6.2,0,0,1,3.07.63l-.9,4.24a6.81,6.81,0,0,0-2.81-.48c-2.38,0-5.34,1.7-7.25,6.62V99.26h-4.82Z"/><path class="cls-1" d="M180.39,96l2.39-3.18a13,13,0,0,0,8.52,3.39c3.81,0,5.67-2,5.67-4.5,0-2.91-3.39-4.24-6.57-5.46-4-1.48-8.58-3.44-8.58-8.31,0-4.55,3.66-8.15,9.9-8.15A14.86,14.86,0,0,1,200.67,73l-2.33,3.12a10.82,10.82,0,0,0-6.62-2.54c-3.6,0-5.24,1.91-5.24,4.13,0,2.75,3.13,3.76,6.36,5,4.18,1.58,8.78,3.28,8.78,8.73,0,4.66-3.7,8.53-10.48,8.53A17.39,17.39,0,0,1,180.39,96Z"/><path class="cls-1" d="M207.24,94.12a5.62,5.62,0,1,1,5.61,5.88A5.59,5.59,0,0,1,207.24,94.12Z"/></g></g></svg>